# xmcd
#
# Track frame offsets: 
#        150
#        14477
#        28308
#        42166
#        55049
#        68528
#        81130
#        93328
#        104649
#        118168
#        131421
#        142733
#        156289
#        169863
#        182937
#        195904
#        209902
#        223720
#        235774
#        249137
#
# Disc length: 3467 seconds
#
# Revision: 4
# Processed by: cddbd v1.5.2PL0 Copyright (c) Steve Scherf et al.
# Submitted via: ExactAudioCopyFreeDBPlugin 1.0
#
DISCID=180d8914
DTITLE=Various Artist - Blues Selection - Vol. 04
DYEAR=2006
DGENRE=Blues
TTITLE0=Huddie 'Leadbelly' Ledbetter - Easy Rider (1940)
TTITLE1=Big Joe Williams - I Know You Gonna Miss Me (1937)
TTITLE2=Big Bill Broonzy - Horny Frog (1937)
TTITLE3=Big Bill Broonzy - You Do Me Any Old Way (1937)
TTITLE4=Josh White - Silicosis Is Killin' Me (1936)
TTITLE5=Memphis Minnie - Boy Friend Blues (1940)
TTITLE6=Blind Boy Fuller - I Want Some Of Your Pie (1939)
TTITLE7=Sonny Terry - Harmonica And Washboard Breakdown (1940)
TTITLE8=John Lee 'Sonny Boy' Williamson - Good Morning Little School G
TTITLE8=irl (1937)
TTITLE9=John Lee 'Sonny Boy' Williamson - Jackson Blues (1937)
TTITLE10=Robert Johnson - Cross Road Blues (1936)
TTITLE11=Robert Johnson - Terraplane Blues (1936)
TTITLE12=Bukka White - Shake 'Em On Down (1937)
TTITLE13=Lonnie Johnson - Mean Old Bug Blues
TTITLE14=Champion Jack Dupree - Dupree Shake Dance (1941)
TTITLE15=Eddie James 'Son' House Jr. - My Black Mama Part 1
TTITLE16=Lonnie Johnson - Life Saver Blues
TTITLE17=Lowell Fulson - River Blues Part 1 (1948)
TTITLE18=Blind Willie McTell - My Baby's Gone (1933)
TTITLE19=Sleepy John Estes - Liquor Store Blues (1938)
EXTD=
EXTT0=
EXTT1=
EXTT2=
EXTT3=
EXTT4=
EXTT5=
EXTT6=
EXTT7=
EXTT8=
EXTT9=
EXTT10=
EXTT11=
EXTT12=
EXTT13=
EXTT14=
EXTT15=
EXTT16=
EXTT17=
EXTT18=
EXTT19=
PLAYORDER=
